inDegrees=no
num_controls=7
num_derivatives=13
num_iterations=123
num_multipliers=7
num_parameters=0
num_slacks=7
num_states=26
objective=5.761882
objective_accelerations=0.492402
objective_balance=0.039424
objective_effort=0.482513
objective_height=4.652379
objective_ligament=0.095164
solver_duration=1278.465086
status=Solve_Succeeded
success=true
DataType=double
version=3
OpenSimVersion=4.4-2022-07-23-0e9fedc
endheader
time	/jointset/ground_pelvis/pelvis_tilt/value	/jointset/ground_pelvis/pelvis_tx/value	/jointset/ground_pelvis/pelvis_ty/value	/jointset/hip_l/hip_flexion_l/value	/jointset/hip_l/hip_adduction_l/value	/jointset/hip_l/hip_rotation_l/value	/jointset/back/lumbar_extension/value	/jointset/patellofemoral_l/patellar_flexion_l/value	/jointset/knee_l/knee_flexion_l/value	/jointset/knee_l/knee_adduction_l/value	/jointset/knee_l/knee_rotation_l/value	/jointset/ankle_l/ankle_angle_l/value	/jointset/subtalar_l/subtalar_angle_l/value	/jointset/ground_pelvis/pelvis_tilt/speed	/jointset/ground_pelvis/pelvis_tx/speed	/jointset/ground_pelvis/pelvis_ty/speed	/jointset/hip_l/hip_flexion_l/speed	/jointset/hip_l/hip_adduction_l/speed	/jointset/hip_l/hip_rotation_l/speed	/jointset/back/lumbar_extension/speed	/jointset/patellofemoral_l/patellar_flexion_l/speed	/jointset/knee_l/knee_flexion_l/speed	/jointset/knee_l/knee_adduction_l/speed	/jointset/knee_l/knee_rotation_l/speed	/jointset/ankle_l/ankle_angle_l/speed	/jointset/subtalar_l/subtalar_angle_l/speed	/forceset/tau_hip_flexion_l	/forceset/tau_hip_adduction_l	/forceset/tau_hip_rotation_l	/forceset/tau_knee_flexion_l	/forceset/tau_ankle_angle_l	/forceset/tau_subtalar_angle_l	/forceset/tau_lumbar_extension	lambda_cid13_p0	lambda_cid13_p1	lambda_cid13_p2	lambda_cid13_p3	lambda_cid13_p4	lambda_cid13_p5	lambda_cid14_p0	/jointset/ground_pelvis/pelvis_tilt/accel	/jointset/ground_pelvis/pelvis_tx/accel	/jointset/ground_pelvis/pelvis_ty/accel	/jointset/hip_l/hip_flexion_l/accel	/jointset/hip_l/hip_adduction_l/accel	/jointset/hip_l/hip_rotation_l/accel	/jointset/back/lumbar_extension/accel	/jointset/patellofemoral_l/patellar_flexion_l/accel	/jointset/knee_l/knee_flexion_l/accel	/jointset/knee_l/knee_adduction_l/accel	/jointset/knee_l/knee_rotation_l/accel	/jointset/ankle_l/ankle_angle_l/accel	/jointset/subtalar_l/subtalar_angle_l/accel	gamma_cid13_p0	gamma_cid13_p1	gamma_cid13_p2	gamma_cid13_p3	gamma_cid13_p4	gamma_cid13_p5	gamma_cid14_p0
0	-0.03681722492034734	0.05667519050879957	0.9203416881090927	0.3085811930696054	-0.2956389215857844	-0.301572889582985	-0.3879500408040475	0.2499276582270897	0.249927658227084	-0.1745329124125442	-0.1744992393837868	-0.0008036543073733089	0.0004387739369047296	0	0	0	0	0	0	0	0	0	0	0	0	0	0.06925222164871972	-0.02668115884184098	-0.01939829226547889	-0.2370335303576071	0.1830888292197874	-0.02995004300344898	0.0044606896527691	14.51275249814238	7.633128648020085	1.564841531984613	14.65913119053293	-624.6890978292159	-58.98467824634959	-23.19580586138158	-1.160071806879927	-2.105659549436764	-0.8944942775622291	9.10194729315096	-0.7304401961424896	3.035140477866565	-7.167631481657216	8.599512367019154	8.599512367018333	1.244510742828141	-0.07508105160369587	1.144139487281351	-0.3986063054125847	7.700932463403383e-09	1.357471774482225e-07	4.29696183403496e-08	-1.465225211140402e-08	1.248212602444365e-07	2.004123948352197e-08	4.916649075972664e-09
0.01	-0.03687156732166465	0.05657188085419885	0.9202979812451701	0.3090245432628007	-0.2956756353609917	-0.3014204664446234	-0.3883066730465203	0.250349049725735	0.2503490497257699	-0.174474151665156	-0.1744997753005966	-0.0007474874105295005	0.0004182769851075303	-0.01082157880963598	-0.02048308176816129	-0.00870226422493839	0.08816308641964997	-0.007306924292709094	0.03034554190763829	-0.070811317788679	0.08389348774474868	0.08389348774474938	0.01168987238818346	-9.911293537956144e-05	0.0112919023191642	-0.004040703706154736	0.06535256758426883	-0.04485826925179428	-0.01901754694798619	-0.236352481916302	0.1788119980066848	-0.01106961365372401	0.008939924717869257	13.75813852668523	-0.25328308385825	2.615141645956785	12.54461996080156	-627.5457284799043	-75.31498438899432	-23.20066362737916	-1.036173006121086	-1.992808048749048	-0.8522012468070361	8.597441573757749	-0.7254716185656234	3.013398279269313	-6.960612321262225	8.226544196325541	8.226544196326019	1.121910882074189	0.02388716161696493	1.130498276503794	-0.3980261605692441	-1.974260636507459e-08	1.371430144546021e-07	1.079863358084515e-07	1.324373333084886e-08	1.174499221244546e-08	-2.145312218679245e-08	-2.047707892411123e-09
0.02	-0.03703271992870456	0.05626910527026702	0.9201684299886292	0.3103343147716773	-0.2957843489936721	-0.3009687604407762	-0.3893559645456355	0.2515978315455168	0.2515978315455172	-0.1743003551147343	-0.1745010596314241	-0.0005766449560399127	0.0003591282447783438	-0.02136204114389701	-0.03989318586622017	-0.01716887852371652	0.1732842631347076	-0.01439997149463841	0.05985657309757126	-0.1385318513288897	0.1654780642144124	0.1654780642144168	0.02300716058679597	-0.0001496828258756525	0.0229351115291197	-0.007730357706404993	0.06145291351992819	-0.06303537966175732	-0.01863680163100498	-0.235671433474844	0.1745351667936165	0.007810815696009432	0.01341915978303511	13.0697698690338	-8.150115380249686	3.66575674817037	10.34600124296556	-629.3963830855724	-91.56282259736112	-23.21494492097571	-1.103848511804726	-1.891064015416493	-0.8473642923301867	8.493565352232523	-0.6876647779865893	2.868238334325548	-6.549474631963422	8.137730112002187	8.137730112001968	1.169993904913842	-0.06537244262699811	1.214400865439353	-0.3283963642318374	-4.718614519355255e-08	1.385388514609818e-07	1.730030532765534e-07	4.113971877310174e-08	-1.013312758195456e-07	-6.294748385710686e-08	-9.01206486079491e-09
0.03	-0.03729797373616623	0.05577716764295451	0.9199551370708369	0.3124809437053695	-0.2959627856576514	-0.3002265542309519	-0.39106731118943	0.2536511132905256	0.2536511132905241	-0.1740151311024377	-0.1745029982379441	-0.0002881870635380511	0.0002647806009623018	-0.03162861846078442	-0.05835772125194474	-0.02547183698085856	0.2555872207503143	-0.02124527449182788	0.08844434232720562	-0.2032787207183018	0.2448026656747419	0.2448026656747503	0.03396670857608823	-0.0002289626438109086	0.03475723472095385	-0.01109470057653776	0.05582386062009907	-0.05327544882810305	-0.01813108529519784	-0.2320322561879801	0.1741889265760777	0.001438503583809834	0.01868968313272524	12.67528578568618	-5.401826479538293	3.32843854068297	9.686850031710412	-630.891809000708	-84.98122149964733	-23.23805833703012	-0.9790524443187936	-1.803647208468123	-0.8191021374637352	8.030507564252201	-0.6766920480128126	2.832976749492729	-6.368479585283536	7.773484126750592	7.773484126751272	1.048334976944848	0.02218155353716992	1.166234451816974	-0.3338244207075934	-6.677549468790201e-08	1.14256605392269e-07	2.253633925602522e-07	5.800250434884357e-08	-1.841142979299452e-07	-9.970762938397363e-08	-1.72352382473254e-08
0.04	-0.03766409133733897	0.05510468488012056	0.9196593464654611	0.3154369715348186	-0.2962084211490901	-0.2992026842223895	-0.3934123638256924	0.2564863728428778	0.2564863728428802	-0.1736224316640411	-0.1745054521816386	0.0001185153420345812	0.0001381152939842388	-0.04153479988517166	-0.07600221297050923	-0.03366841604034893	0.3351640422870084	-0.02783973698612988	0.1161893328452653	-0.2652730498218248	0.3218736256831608	0.3218736256831743	0.04450224580570218	-0.0002527502651781641	0.04658401414324428	-0.01419389033881445	0.0501948077202686	-0.0435155179944268	-0.01762536895941046	-0.2283930789011054	0.1738426863585513	-0.004933808528362493	0.02396020648240182	12.34291319028438	-2.660739099048941	2.988072109239019	8.939473977800798	-631.4642495034469	-78.31727405463407	-23.26927016068392	-1.031769333304459	-1.727055281984702	-0.826088412799859	7.948338136450067	-0.6374966774090904	2.699682592010699	-5.998966574785445	7.687001821620099	7.687001821620082	1.085191752978187	-0.05427400331332207	1.215332111530352	-0.2753657426607082	-8.620290213412514e-08	8.944491431169857e-08	2.774627755927261e-07	7.463780126754394e-08	-2.662727170316523e-07	-1.363701622068518e-07	-2.548436661154965e-08
0.05	-0.03812769206853472	0.05425979925584295	0.9192819462655873	0.319175575682945	-0.2965186555994641	-0.2979061755970789	-0.3963631987209362	0.2600812052589522	0.2600812052589547	-0.173126427596741	-0.174508414370145	0.0006433788147905085	-1.816546745059848e-05	-0.05112098003699866	-0.09284346107519903	-0.04180636836165848	0.4121040666446881	-0.03415804488526801	0.1429626212940574	-0.324424696519428	0.3967060801250388	0.3967060801250578	0.05462010955443834	-0.0003307460093989448	0.0583720099844203	-0.01701702527701091	0.04341522964805031	-0.0435738816833685	-0.01678289072151178	-0.2236429663996696	0.1681797120466571	-0.0009912952743992933	0.02997108648007216	10.68133367728824	-4.089469101593939	3.224334131077499	8.713695544701023	-632.2007617176695	-80.40173920975803	-23.30765885483586	-0.9123908408507788	-1.642926891839733	-0.8069142243430771	7.498916983355697	-0.6216770995631949	2.643646728805012	-5.802878810745484	7.323355808016884	7.323355808017666	0.9633556611415636	0.01682508258690379	1.158031227610937	-0.279047502295935	-9.99318343520618e-08	5.069367040107474e-08	3.155776712986261e-07	8.492620690561001e-08	-3.282019022009876e-07	-1.666206138508002e-07	-3.341213591008394e-08
0.06	-0.03868522429820477	0.05325044768709224	0.9188233134259904	0.3236699965542242	-0.2968906089795085	-0.2963464351357804	-0.3998914731018607	0.2644127599299526	0.2644127599299555	-0.1725315904968844	-0.1745118790275599	0.001285621827398126	-0.000201329604846777	-0.06032109957793992	-0.1088954018651269	-0.04991494398496336	0.4863273869195209	-0.04018352292028513	0.1688357000425193	-0.3807609469569156	0.4692180766687218	0.4692180766687437	0.06426885231598727	-0.000353244051075394	0.07005992211357714	-0.01957056553108027	0.03663565157579771	-0.04363224537230213	-0.01594041248362655	-0.2188928538982552	0.1625167377347579	0.002951217979570776	0.03598196647771927	9.074636783982804	-5.526466117767896	3.460380792489495	8.401662483082625	-632.1140610701179	-82.41620117840736	-23.35218534850196	-0.9545572111270584	-1.56919381903253	-0.8202130731989279	7.404997319880735	-0.5789307045848687	2.519640651944787	-5.435887322762201	7.222910241981094	7.222910241980573	0.9913675555407663	-0.04317446280431725	1.195315369126275	-0.221446805835356	-1.134208307709127e-07	1.135549795023817e-08	3.531037464855123e-07	9.494737501607043e-08	-3.892793301521178e-07	-1.966010831293199e-07	-4.132637430058919e-08
0.07000000000000001	-0.03933310849790588	0.05208456055663784	0.9182836051093378	0.3288935887133279	-0.2973212025333528	-0.2945328738218742	-0.4039687745852255	0.2694581628607965	0.2694581628607903	-0.1718423120260013	-0.1745157012324878	0.002044375950841239	-0.0004084794869671249	-0.06919015798825134	-0.1241455892167423	-0.05802990064436005	0.5579381321579332	-0.0458755875275066	0.1937259712321067	-0.43423573384116	0.5394764266058316	0.5394764266058509	0.07351670487753183	-0.0003966096151138046	0.08167875773887455	-0.02180215567809794	0.02960296070238367	-0.04073626627091784	-0.01513861110963578	-0.2146227940814914	0.1583341354900391	0.003985093610006968	0.04218899940770261	7.812561636314882	-5.779464461358111	3.529233125652858	8.031298491584471	-632.3181580431968	-81.88954671449015	-23.40165531982334	-0.8432439683742899	-1.482446831489371	-0.8076927533364043	6.971166483640789	-0.5554456127541603	2.451076023172936	-5.233731989706319	6.869393296679267	6.86939329667921	0.8810072293033357	0.01733292232672241	1.143341728237758	-0.2154684688497235	-1.224948601645805e-07	-4.386251004510049e-08	3.770969984880779e-07	9.971443788483019e-08	-4.333849418313123e-07	-2.216440737000594e-07	-4.929290303506033e-08
0.08	-0.04006771604420015	0.05077026842501416	0.9176626360678853	0.3348196989963741	-0.2978069369880633	-0.2924749386619305	-0.408566915461127	0.2751945684764272	0.2751945684764275	-0.1710626524049407	-0.1745195069879381	0.002918953244338451	-0.0006362359405006222	-0.07766576889417029	-0.1385764020989855	-0.06616708894491248	0.6268310117091178	-0.05121170309326949	0.2177104692499904	-0.4849288254634122	0.6074186136270721	0.607418613627091	0.08234508235276396	-0.000349954157930096	0.09322455612441667	-0.02369187981370467	0.02257026982899526	-0.03784028716950147	-0.01433680973562348	-0.210352734264715	0.1541515332453355	0.005018969240481224	0.04839603233768888	6.599601566833083	-6.038810283819678	3.596525096104803	7.576731878490468	-631.7946810589682	-81.29858929831387	-23.45478378731809	-0.875867710248322	-1.405318925158304	-0.8246594014300799	6.861424182435226	-0.5077408962931192	2.338486017604247	-4.87954827036366	6.759677658807207	6.759677658807134	0.9074725382783175	-0.02517025855969424	1.180707921174991	-0.1530736035532166	-1.312840529759783e-07	-1.001050235594392e-07	4.002171651239131e-07	1.041425262218673e-07	-4.763955976219948e-07	-2.463685172573936e-07	-5.72628053401099e-08
0.09	-0.04088539595513273	0.04931566149719524	0.916960053769918	0.3414218787380211	-0.2983442046369756	-0.2901821575165803	-0.4136580730962142	0.2815992580475509	0.2815992580475515	-0.1701966151335392	-0.174522963848893	0.003908596553977761	-0.0008811368442263695	-0.08580416644943145	-0.152217392904866	-0.07436029178569009	0.6931702554938965	-0.05617956272576775	0.2406904656458889	-0.5328689240086757	0.6731388856482403	0.6731388856482301	0.09079166045568215	-0.0003316096619445295	0.1046784443164339	-0.0252331219131979	0.01525526117132482	-0.03481035948818501	-0.01350419495110645	-0.2061407275819633	0.1496166501702521	0.006076294023679077	0.05472883055126353	5.250529320718127	-6.284615462871033	3.661780953773077	7.384346732041763	-631.5246119268364	-80.66988014111875	-23.51017969260991	-0.7729172168629095	-1.324329674777224	-0.8183848702255887	6.454963620670841	-0.4819978115019495	2.25439337219905	-4.686174014575453	6.42115131256702	6.421151312562684	0.8026617133575396	0.01688270348734844	1.123872775967329	-0.1464016239758068	-1.363236031734541e-07	-1.472648570806342e-07	4.137182907994443e-07	1.057058512904778e-07	-5.019664233023924e-07	-2.625007343586708e-07	-6.321105849020905e-08
